<svg xmlns="http://www.w3.org/2000/svg" viewBox="0 0 800.74 892.43"><defs><style>.cls-1{fill:#002d00;}</style></defs><g id="Layer_2" data-name="Layer 2"><g id="Layer_1-2" data-name="Layer 1"><g id="T4o0en"><path class="cls-1" d="M63,404.81c.14,60.5,17.34,120.76,52.25,175.73a332.2,332.2,0,0,0,125.3,116.4c12.55,6.73,21,15.58,20.86,30.71-.2,21.69-21.76,36.71-42.05,28.79-12.45-4.86-23.65-12.27-34.82-19.52Q78,667.82,29.42,550.46c-15.11-36.58-24-74.74-27.7-114.16A398.49,398.49,0,0,1,101.4,134.65,399,399,0,0,1,349.54,3.38,366.45,366.45,0,0,1,399.34,0c98.9.91,186.59,32.67,261.79,97.22,63.15,54.21,105.1,122,126.61,202.36A382.33,382.33,0,0,1,800,422.4c-5.37,87.51-35.85,165.41-91.83,233.08a398.4,398.4,0,0,1-122.29,99.1c-17.48,9.23-36.73,3.06-44.72-14.28-7-15.25-.73-32.67,15.21-41.13A341.67,341.67,0,0,0,617.66,658c51.25-43.55,86.88-97.4,106.21-161.91a327.76,327.76,0,0,0,13.75-107c-2.24-60-18.7-115.84-50.58-166.87Q633.12,135.87,540.56,93.31A331.29,331.29,0,0,0,434.43,64.77a336.34,336.34,0,0,0-103.84,5.42q-85.6,18-151.78,75.52Q107,208.38,78.27,299.3a343.85,343.85,0,0,0-14,70.42C63.27,379.87,63.38,390,63,404.81Z"/><path class="cls-1" d="M677.55,400.25c-.78,71.8-25.12,134.41-73.49,187.64-4.37,4.81-8.68,9.67-13.81,13.72-12.22,9.66-29.2,8.69-41.13-2.37-10.79-10-12.81-28.2-3.67-40.19,5.62-7.38,12.62-13.71,18.66-20.8,26.14-30.71,42.72-66,48.22-105.92,8.89-64.49-7.05-122.38-49.56-172.14-33.92-39.7-77.15-64.18-128.66-71.55-72.73-10.39-136.19,9.92-188.15,62.84-33.26,33.87-52.79,74.8-58.28,121.73-7.54,64.52,10.18,121.64,53.62,170.39,3.32,3.73,6.81,7.31,10.28,10.9,12.35,12.74,12.59,31.7.54,44.06a31,31,0,0,1-44.44.66c-44.59-43.41-72.24-95.9-81.41-157.38-11.33-76,6.31-145.44,52-207.08,37.34-50.34,86.83-84.06,147.14-101.4A259.78,259.78,0,0,1,408.39,123c63.09,2.64,119.58,23.35,168.36,63.82,46.88,38.9,77.77,88.08,92.78,147.1A248.09,248.09,0,0,1,677.55,400.25Z"/><path class="cls-1" d="M400.67,553.4c49.75-.77,93.82,41.53,92.48,94.6-.26,10.49-2.45,20.82-4.19,31.16-6.88,40.88-13.7,81.77-20.84,122.6-2.69,15.4-4.39,31-8.62,46.11-6.68,23.88-29.12,42.43-52.57,44.32-32,2.59-53.8-16.09-62.85-36.17-5.71-12.66-6.71-26.42-9-39.82-7.39-42.48-14.47-85-21.6-127.53-1.95-11.65-4.07-23.3-5.39-35-2.59-23.08,3.82-44,17.53-62.44C344.19,566.21,369.46,553.68,400.67,553.4Z"/><path class="cls-1" d="M493.27,400.69a93,93,0,0,1-93.89,92.39c-48.74-.41-91.95-39-91.95-92.78,0-55.45,45.65-93.77,94.86-92.88C452.16,308.33,493.49,350.14,493.27,400.69Z"/></g></g></g></svg>