<svg width="422" height="131" xmlns="http://www.w3.org/2000/svg">

 <g>
  <title>Layer 1</title>
  <g data-name="Layer 2" id="Layer_2">
   <g data-name="Layer 1" id="Layer_1-2">
    <g data-name="2iaumh" id="_2iaumh">
     <path id="svg_1" fill="#002d00" d="m133.07143,106.31736a15.91,15.91 0 0 1 -9.2,-2.94a6.76,6.76 0 0 0 -3.38,-1.09a7.1,7.1 0 0 0 -3.9,0.82a25.43,25.43 0 0 1 -3.85,1.35a28.81,28.81 0 0 1 -6.68,1.35a7.18,7.18 0 0 1 -3.08,-0.39c-0.42,-0.15 -0.87,-0.2 -1.3,-0.35a8.54,8.54 0 0 1 -4.69,-4.25a22,22 0 0 1 -2.4,-8a9,9 0 0 1 0.71,-4.61a16.38,16.38 0 0 1 5.8,-7a9.58,9.58 0 0 0 2.84,-3.45a21.51,21.51 0 0 0 2,-6.55a9,9 0 0 1 1.47,-3.37a12.26,12.26 0 0 1 6,-5a16.15,16.15 0 0 1 7,-0.89a15.22,15.22 0 0 1 5.79,1.49a11.13,11.13 0 0 1 5.76,6.53a13.93,13.93 0 0 1 0.63,2.36a12.63,12.63 0 0 0 2.46,5.17a13.7,13.7 0 0 0 4.4,3.71a14.06,14.06 0 0 1 6,6.92a13.51,13.51 0 0 1 0.35,8.87a12,12 0 0 1 -4.59,6.48a15.33,15.33 0 0 1 -6,2.73a9.33,9.33 0 0 1 -2.14,0.11zm-13.74,-42.11a11.1,11.1 0 0 0 -2.16,0.12a10.49,10.49 0 0 0 -3.48,0.88a10.17,10.17 0 0 0 -3.42,2.6a8.8,8.8 0 0 0 -1.93,3.4c-0.28,1 -0.43,2.08 -0.67,3.11a18.89,18.89 0 0 1 -2.48,6a14.52,14.52 0 0 1 -3.51,3.44a12.88,12.88 0 0 0 -4.57,6.4a5.35,5.35 0 0 0 -0.23,2.42a24.81,24.81 0 0 0 1.64,6.16a8.94,8.94 0 0 0 2.68,3.47c1.07,0.81 2.45,0.69 3.61,1.24a0.7,0.7 0 0 0 0.29,0a14.62,14.62 0 0 0 4,-0.49a31.2,31.2 0 0 0 6.37,-2a10.38,10.38 0 0 1 6.45,-0.88a6.06,6.06 0 0 1 2.46,0.77a16.05,16.05 0 0 0 5.55,2.68a10.51,10.51 0 0 0 9.45,-1.74a10.24,10.24 0 0 0 4.55,-10.34a11.29,11.29 0 0 0 -5.61,-8.24c-0.72,-0.45 -1.51,-0.78 -2.21,-1.28a15.15,15.15 0 0 1 -4.34,-5a11.7,11.7 0 0 1 -1.44,-3.45a17.42,17.42 0 0 0 -0.79,-3a8.74,8.74 0 0 0 -3.29,-4.27a12.29,12.29 0 0 0 -6.92,-2z" class="cls-1"/>
     <path id="svg_2" d="m118.83143,61.88736a15.07,15.07 0 0 0 -5.47,0.94a12.26,12.26 0 0 0 -6,5a9,9 0 0 0 -1.43,3.38a21.51,21.51 0 0 1 -2,6.55a9.58,9.58 0 0 1 -2.83,3.45a16.38,16.38 0 0 0 -5.8,7a9,9 0 0 0 -0.7,4.59a22,22 0 0 0 2.4,8a8.54,8.54 0 0 0 4.69,4.25c0.43,0.15 0.88,0.2 1.3,0.35a6.63,6.63 0 0 0 2.4,0.41l0.68,0a28.81,28.81 0 0 0 6.68,-1.35a25.43,25.43 0 0 0 3.85,-1.35a7.17,7.17 0 0 1 3.35,-0.84l0.55,0a6.76,6.76 0 0 1 3.38,1.09a16,16 0 0 0 9.08,2.94l0.47,0a9.45,9.45 0 0 0 1.76,-0.16a15.33,15.33 0 0 0 6,-2.73a12,12 0 0 0 4.59,-6.48a13.51,13.51 0 0 0 -0.35,-8.87a14.06,14.06 0 0 0 -6,-6.92a13.7,13.7 0 0 1 -4.49,-3.68a12.63,12.63 0 0 1 -2.46,-5.17a13.93,13.93 0 0 0 -0.63,-2.36a11.13,11.13 0 0 0 -5.76,-6.53a15.22,15.22 0 0 0 -5.79,-1.49c-0.5,0 -1,0 -1.49,0l0.02,-0.02zm-13.91,41.62l-0.11,0c-1.16,-0.55 -2.54,-0.43 -3.61,-1.24a8.94,8.94 0 0 1 -2.68,-3.58a24.81,24.81 0 0 1 -1.64,-6.16a5.35,5.35 0 0 1 0.23,-2.42a12.88,12.88 0 0 1 4.57,-6.4a14.52,14.52 0 0 0 3.51,-3.5a19.13,19.13 0 0 0 2.48,-6c0.24,-1 0.39,-2.09 0.67,-3.11a8.8,8.8 0 0 1 1.93,-3.35a10.17,10.17 0 0 1 3.42,-2.6a10.49,10.49 0 0 1 3.48,-0.88a16.39,16.39 0 0 1 1.72,-0.14l0.44,0a12.29,12.29 0 0 1 6.92,2a8.74,8.74 0 0 1 3.29,4.22a17.42,17.42 0 0 1 0.79,3a11.7,11.7 0 0 0 1.44,3.45a15.15,15.15 0 0 0 4.34,5c0.7,0.5 1.49,0.83 2.21,1.28a11.29,11.29 0 0 1 5.61,8.32a10.24,10.24 0 0 1 -4.55,10.34a11.69,11.69 0 0 1 -5.78,2.28l-0.56,0a12.72,12.72 0 0 1 -3.06,-0.45a16.05,16.05 0 0 1 -5.55,-2.68a6.06,6.06 0 0 0 -2.46,-0.77a10.27,10.27 0 0 0 -1.9,-0.18a10.77,10.77 0 0 0 -4.55,1.06a31.2,31.2 0 0 1 -6.37,2a16.51,16.51 0 0 1 -3.56,0.5l-0.62,0l-0.05,0.01z"/>
     <path id="svg_3" fill="#002d00" d="m156.89143,68.49736a15.24,15.24 0 0 1 -3,9.3a9.29,9.29 0 0 1 -5.62,3.71a8.36,8.36 0 0 1 -7.56,-2.17a13.52,13.52 0 0 1 -4.2,-8a15.88,15.88 0 0 1 1.61,-10.5a10.28,10.28 0 0 1 6.06,-5.32a8.15,8.15 0 0 1 7.81,1.6a12.49,12.49 0 0 1 4.18,6.43a15,15 0 0 1 0.72,4.95zm-18.29,-0.07c0,0.41 0,0.83 0,1.25a5.77,5.77 0 0 0 0.1,0.71a11.92,11.92 0 0 0 3.64,7.29a6.07,6.07 0 0 0 7.26,0.86a9.4,9.4 0 0 0 4.11,-5.22a13.83,13.83 0 0 0 0.64,-7.38a11.18,11.18 0 0 0 -3.86,-7a6,6 0 0 0 -6.79,-0.73a8.68,8.68 0 0 0 -3.58,3.79a13.21,13.21 0 0 0 -1.52,6.43z" class="cls-1"/>
     <path id="svg_4" d="m146.68143,55.09736a8.62,8.62 0 0 0 -2.51,0.39a10.28,10.28 0 0 0 -6.06,5.32a15.88,15.88 0 0 0 -1.61,10.5a13.52,13.52 0 0 0 4.2,8a8.29,8.29 0 0 0 7.56,2.17a9.29,9.29 0 0 0 5.62,-3.71a15.24,15.24 0 0 0 3,-9.3a15,15 0 0 0 -0.73,-5a12.49,12.49 0 0 0 -4.18,-6.43a8.42,8.42 0 0 0 -5.3,-2l0.01,0.06zm-0.08,24.28a6.36,6.36 0 0 1 -4.23,-1.7a11.92,11.92 0 0 1 -3.64,-7.29a5.77,5.77 0 0 1 -0.1,-0.71c0,-0.42 0,-0.84 0,-1.25a13.21,13.21 0 0 1 1.52,-6.44a8.68,8.68 0 0 1 3.55,-3.78a6.09,6.09 0 0 1 2.89,-0.76a6.22,6.22 0 0 1 3.9,1.45a11.18,11.18 0 0 1 3.86,7a13.83,13.83 0 0 1 -0.64,7.38a9.4,9.4 0 0 1 -4.11,5.26a6,6 0 0 1 -3,0.84z"/>
     <path id="svg_5" fill="#002d00" d="m82.50143,68.48736a15,15 0 0 1 3.39,-9.84a9,9 0 0 1 6.78,-3.44a8.32,8.32 0 0 1 5.4,1.87a12.57,12.57 0 0 1 4.19,6.13a16.34,16.34 0 0 1 0.42,9.29a13.51,13.51 0 0 1 -3.6,6.64c-3.37,3.27 -8,3.66 -11.66,0.74a12.52,12.52 0 0 1 -4.16,-6.33a15.3,15.3 0 0 1 -0.76,-5.06zm18.32,0a13,13 0 0 0 -1.11,-5.48a9.12,9.12 0 0 0 -3.79,-4.6a5.86,5.86 0 0 0 -6.17,0a8.88,8.88 0 0 0 -3.8,4.53a14,14 0 0 0 -0.52,9.73a10.49,10.49 0 0 0 3.43,5.35a6,6 0 0 0 4.6,1.43a7.3,7.3 0 0 0 5.14,-3.37a13.15,13.15 0 0 0 2.22,-7.57l0,-0.02z" class="cls-1"/>
     <path id="svg_6" d="m92.91143,55.20736l-0.24,0a9,9 0 0 0 -6.78,3.44a15,15 0 0 0 -3.39,9.84a15.3,15.3 0 0 0 0.76,5a12.52,12.52 0 0 0 4.16,6.33a8.59,8.59 0 0 0 5.39,2a9,9 0 0 0 6.27,-2.71a13.43,13.43 0 0 0 3.6,-6.64a16.34,16.34 0 0 0 -0.42,-9.26a12.57,12.57 0 0 0 -4.19,-6.09a8.36,8.36 0 0 0 -5.16,-1.91zm-0.16,24.28a6.2,6.2 0 0 1 -3.89,-1.47a10.49,10.49 0 0 1 -3.43,-5.35a14,14 0 0 1 0.52,-9.73a8.93,8.93 0 0 1 3.8,-4.53a5.85,5.85 0 0 1 6.17,0a9.12,9.12 0 0 1 3.79,4.6a13,13 0 0 1 1.11,5.48a13.15,13.15 0 0 1 -2.22,7.59a7.3,7.3 0 0 1 -5.1,3.37a5.74,5.74 0 0 1 -0.71,0l-0.04,0.04z"/>
     <path id="svg_7" fill="#002d00" d="m120.60143,45.39736a15.89,15.89 0 0 1 2,-7.76a10.37,10.37 0 0 1 6.31,-5.23a7.61,7.61 0 0 1 4.18,0c3.48,1 5.6,3.47 7,6.68a16.3,16.3 0 0 1 0.72,10.56a12.87,12.87 0 0 1 -4.1,6.87a8.52,8.52 0 0 1 -11.64,-0.25a13.67,13.67 0 0 1 -4.18,-8.5a13.67,13.67 0 0 1 -0.29,-2.37zm2.33,0a15.69,15.69 0 0 0 0.36,3.2a11.08,11.08 0 0 0 3.55,6.23a6.1,6.1 0 0 0 7.2,0.66a9.47,9.47 0 0 0 3.8,-4.65a13.89,13.89 0 0 0 1,-6.78a11.88,11.88 0 0 0 -3.24,-7.53a6.27,6.27 0 0 0 -4.39,-2a6.59,6.59 0 0 0 -5.47,2.68a12.69,12.69 0 0 0 -2.77,8.21l-0.04,-0.02z" class="cls-1"/>
     <path id="svg_8" d="m130.94143,32.12736a7.63,7.63 0 0 0 -2.06,0.28a10.37,10.37 0 0 0 -6.28,5.23a15.89,15.89 0 0 0 -2,7.76a13.67,13.67 0 0 0 0.18,2.39a13.67,13.67 0 0 0 4.18,8.5a8.51,8.51 0 0 0 11.64,0.25a12.87,12.87 0 0 0 4.1,-6.87a16.3,16.3 0 0 0 -0.72,-10.56c-1.36,-3.21 -3.48,-5.67 -7,-6.68a7.81,7.81 0 0 0 -2.12,-0.3l0.08,0zm0,24.25a6,6 0 0 1 -4,-1.53a11.08,11.08 0 0 1 -3.55,-6.23a15.69,15.69 0 0 1 -0.36,-3.2a12.69,12.69 0 0 1 2.71,-8.21a6.64,6.64 0 0 1 5.24,-2.68l0.21,0a6.27,6.27 0 0 1 4.39,2a11.88,11.88 0 0 1 3.29,7.55a13.89,13.89 0 0 1 -1,6.78a9.47,9.47 0 0 1 -3.8,4.65a6.2,6.2 0 0 1 -3.16,0.87l0.03,0z"/>
     <path id="svg_9" fill="#002d00" d="m96.60143,45.20736a15.59,15.59 0 0 1 0.9,-5.58a12.22,12.22 0 0 1 4.82,-6.36a8.41,8.41 0 0 1 10.57,1.12a13.76,13.76 0 0 1 4.12,8.37a16.84,16.84 0 0 1 -0.62,7.6a11.82,11.82 0 0 1 -5.74,7.22a8.57,8.57 0 0 1 -9.65,-1.47a14.57,14.57 0 0 1 -4.4,-10.9zm18.24,-0.22a10.39,10.39 0 0 0 -0.21,-2.46a11,11 0 0 0 -3.79,-6.83a6.07,6.07 0 0 0 -8.1,0.15a10.87,10.87 0 0 0 -3.48,6.11a14.14,14.14 0 0 0 0.54,8.25a10.18,10.18 0 0 0 3,4.4a6.06,6.06 0 0 0 6.43,1.14a7.4,7.4 0 0 0 3.43,-2.85a13,13 0 0 0 2.22,-7.89l-0.04,-0.02z" class="cls-1"/>
     <path id="svg_10" d="m106.95143,31.91736a8.56,8.56 0 0 0 -4.59,1.37a12.22,12.22 0 0 0 -4.82,6.36a15.59,15.59 0 0 0 -0.94,5.56a14.54,14.54 0 0 0 4.41,10.9a8.68,8.68 0 0 0 6,2.38a8,8 0 0 0 3.71,-0.89a11.82,11.82 0 0 0 5.74,-7.22a16.84,16.84 0 0 0 0.62,-7.6a13.76,13.76 0 0 0 -4.12,-8.37a8.67,8.67 0 0 0 -6,-2.49l-0.01,0zm-0.1,24.29a6.22,6.22 0 0 1 -4.06,-1.6a10.18,10.18 0 0 1 -3,-4.4a14.14,14.14 0 0 1 -0.5,-8.19a10.87,10.87 0 0 1 3.48,-6.11a6.39,6.39 0 0 1 4.16,-1.7a6.24,6.24 0 0 1 4,1.47a11,11 0 0 1 3.79,6.83a10.39,10.39 0 0 1 0.21,2.46a13,13 0 0 1 -2.23,7.85a7.4,7.4 0 0 1 -3.43,2.85a6.6,6.6 0 0 1 -2.37,0.46l-0.05,0.08z"/>
    </g>
    <text x="13.25178" y="5.20736" id="svg_11" font-style="italic" font-family="CooperBlackStd-Italic, Cooper Std" font-size="116.52px" fill="#002d00" transform="translate(0 100.04) scale(0.8 1)" class="cls-2">p</text>
    <text x="13.25178" y="5.20736" id="svg_12" font-style="italic" font-family="CooperBlackStd-Italic, Cooper Std" font-size="116.52px" fill="#002d00" transform="translate(150.57 99.04) scale(0.8 1)" class="cls-2">wdcast</text>
   </g>
  </g>
 </g>
</svg>