<svg xmlns="http://www.w3.org/2000/svg" viewBox="0 0 1998.55 599.63"><defs><style>.cls-1{fill:#002d00;}</style></defs><g id="Layer_2" data-name="Layer 2"><g id="Layer_1-2" data-name="Layer 1"><g id="rWsCgR.tif"><path class="cls-1" d="M321.55,0c10.86,1.52,21.79,2.69,32.57,4.64,50.05,9,95,29.51,134.35,61.7C545.48,113,582,172.4,594.82,245c15.89,90.1-4.56,171.84-62.06,243.39C490.31,541.22,435.65,576,369.59,591.07c-93.51,21.34-179.34,2.85-255-56.15C53.35,487.14,16.1,423.81,4,346.87-7.66,272.93,6.15,203.47,46.26,140,85.41,78,140.37,36,210.09,13.36A279.37,279.37,0,0,1,273.69.84,28.91,28.91,0,0,0,277.55,0ZM243.44,158.81c-16.12-.3-45.64,2-75,6.47-18.94,2.89-37.76,6.57-56,12.66A27.54,27.54,0,0,0,97,217.83c6.38,11.38,18.95,16.5,32.75,12.49,39-11.34,79-15.47,119.39-16.27a536.08,536.08,0,0,1,87.59,5.79c49.32,7.13,96.8,20,140.35,45.23,13.92,8.06,30.64,3.64,38.34-9.62,7.94-13.68,3.39-30-10.77-38.37a337,337,0,0,0-59.76-27.67C384.16,167.89,321.28,159.11,243.44,158.81Zm-.92,103.1c-10.93-.33-28.85,1.11-46.7,3.29-22.68,2.76-45.09,7.05-66.84,14.2a22.31,22.31,0,0,0-15.28,22.3c.41,10.45,7.08,18.61,17.22,21.39,5.4,1.48,10.53.52,15.71-1,31.66-9.43,64.16-13.28,97.07-14.05,17.49-.4,34.93.89,52.32,2.78a389.89,389.89,0,0,1,96.92,23.07,324,324,0,0,1,48.95,23.74c7.55,4.44,15.58,5.06,23.36.77,16.16-8.93,16-30.52-.17-40.46a324.27,324.27,0,0,0-45.44-23C365.22,272.36,308.39,262.15,242.52,261.91ZM251.18,360c-21.38-.64-45.22,1.81-69,5.34A422.46,422.46,0,0,0,140,373.46c-9.27,2.37-14.08,9.61-13.51,19.49.5,8.57,6.47,14.85,15.51,16.33,3.73.61,7.28-.44,10.85-1.22,45.32-9.91,91.06-14.69,137.4-10,42.81,4.37,83.18,16.68,120.22,39,9.93,6,21,3.86,26.34-4.88,5.84-9.63,3-20.26-7.35-26.54A288.6,288.6,0,0,0,390.82,386C347,367.6,301.27,359.35,251.18,360Z"/><path class="cls-1" d="M1998.55,268c-2.11,6.17-4.45,12.14-9.22,16.93-10.15,10.18-25,13.05-37.76,7.05-11.62-5.46-20-19.45-18.92-31.64,1.32-14.94,11-26.63,25.09-30.24a32.73,32.73,0,0,1,39.15,21.2c.54,1.57,1.11,3.13,1.66,4.7ZM1965.88,291c16.27,0,28.62-12.55,28.6-29s-12.25-28.83-28.7-28.86a29,29,0,0,0-29,28.82C1936.65,278.47,1949.21,291,1965.88,291Z"/><path class="cls-1" d="M1822,372.14c3.12-8.73,5.75-16,8.31-23.32q19.77-56.37,39.42-112.78c1.64-4.76,4.2-6.42,9.14-6.32,13.49.27,27,.06,40.5.1,7,0,8.2,1.58,5.69,8.1q-19.77,51.32-39.68,102.57Q1865,393.16,1844.51,445.8c-5,12.77-11.25,24.83-20.26,35.4-10.22,12-23.3,18.27-38.62,19.65-19.62,1.77-38.56-1.1-56.12-10.71-5.38-2.94-5.84-4-3.38-9.38,4.36-9.55,8.85-19.05,13.06-28.66,1.84-4.21,4.08-5.49,8.52-3.31,7.67,3.78,15.74,6.36,24.49,6.08,10.4-.34,20.56-8.75,22.71-18.81.42-2-.43-3.6-1.13-5.27q-31.08-74.51-62.1-149c-1.56-3.75-3.77-4.91-7.58-4.85-10.33.17-20.67.29-31,0-5.13-.17-6.52,1.66-6.51,6.63.16,48.66.1,97.33.09,146,0,9.18-.39,9.57-9.59,9.57-12,0-24,0-36,0-7,0-7.78-.77-7.78-7.74q0-72.49,0-145c0-9.34,0-9.34-9.59-9.35-3.5,0-7,0-10.5-.08-3.77-.11-5.82-1.91-5.8-5.92q.09-18,0-36c0-4,2.09-5.8,5.84-5.88,4.5-.11,9-.35,13.5,0,5,.37,6.88-1.28,6.64-6.46a103.75,103.75,0,0,1,2-26.33c5.32-25.34,23.61-42.26,49.32-45.48a131.09,131.09,0,0,1,48.55,3.29c4.6,1.15,6.68,3.37,6.55,8.33-.28,11,0,22-.12,33,0,5.79-1.51,6.89-7,5.21a76,76,0,0,0-27.6-3.57c-9.37.66-15.1,5.3-17.56,14.34-4.63,17-3.61,18.41,13.54,18.41,19.5,0,39,.19,58.5-.12,5.68-.08,8.64,1.68,10.71,7.17,15.89,42.08,32.09,84.06,48.19,126.07C1819.45,365.52,1820.47,368.11,1822,372.14Z"/><path class="cls-1" d="M975.66,255.75a95.36,95.36,0,0,1,16.71-15.32c25.65-17.87,53.38-19.75,81.87-8.87,36.36,13.88,55.72,42,62.23,79.41,4.78,27.42,2,54.21-10.62,79.37C1105.58,430.7,1060,451.46,1017,440.18c-14.55-3.83-26.81-11.6-37.57-21.91a19.18,19.18,0,0,1-2.25-3.3l-1.31.69c-.08,1.73-.22,3.46-.22,5.2q0,35.49,0,71c0,7.49-.79,8.25-8.36,8.27q-19,0-38,0c-6.32,0-7.58-1.22-7.64-7.62-.1-9,0-18,0-27q0-112,0-223.95c0-2,0-4,.08-6,.14-4,2.16-6.32,6.19-6.34q21-.12,42,0c4.12,0,5.89,2.33,5.8,6.44C975.56,241.87,975.66,248.13,975.66,255.75Zm108,75.62c.29-6.79-1.58-16.49-5.5-25.86-14.63-35-58.83-43.86-85.57-17.14-21.78,21.76-24.18,60.95-5.27,85.88,20.28,26.73,59,28.7,81.49,3.86C1079.88,365.9,1083.6,350.87,1083.66,331.37Z"/><path class="cls-1" d="M794,159.77c38.44.21,70.3,10.61,98.34,32.3,5.07,3.91,5.25,4.73,1.45,10.14Q883.34,217.14,872.68,232c-3.64,5.07-5.1,5.23-10.17,1.6-14.91-10.69-31-19-49.07-22.71-12.72-2.57-25.49-3.06-38,1.17-15.3,5.18-22.35,16.69-19.72,31.93,1.41,8.12,6.66,13.13,13.54,16.89C779.88,266.64,791.41,270,803,273c18.39,4.75,36.92,9,54.27,17.06,12,5.57,23.31,12.29,32,22.58,13.62,16.1,16.81,35.12,14.91,55.36a76.29,76.29,0,0,1-17,42c-12.66,15.52-29.35,24.8-48.51,28.81-55,11.51-103.48-2.68-146.15-38.48-3-2.54-3.22-5.11-.65-8.13,8.64-10.15,17.29-20.29,25.77-30.57,3.21-3.91,5.95-2.39,8.9.07,10.38,8.7,21.34,16.6,33.77,22.11,21.11,9.36,43,12.93,65.75,7.19,7.74-2,14.53-5.7,19.32-12.47a26.13,26.13,0,0,0-6.75-36.94c-9.75-6.4-20.88-9.53-32-12.44-16.27-4.26-32.74-7.84-48.55-13.73-12.07-4.49-23.72-9.84-33.77-18.09-15.88-13-22.85-30.33-23.82-50.38-1.06-22.12,5.08-41.91,20.32-58.29,13.91-15,31.63-23,51.44-26.75C780.49,160.33,788.77,159.5,794,159.77Z"/><path class="cls-1" d="M1263.28,442.92c-30.46.61-56.93-9.68-78.83-30.7-42.45-40.76-43-111.22-1.74-153.18q29.7-30.17,71.76-33.29c35.26-2.62,65.91,8,90.6,33.44,20.94,21.58,30.32,47.9,29.86,78.11-.79,52-40.47,98.87-98.67,105.56C1272,443.35,1267.61,442.92,1263.28,442.92Zm58.14-110.49c-.68-17.7-7.33-35.53-24.46-48.31-23.69-17.68-58.39-13.66-77.06,9.06-11.77,14.34-15,31-13.39,49.21,3.13,35.82,36.06,60.05,71,51.85C1304,388,1321.26,364.9,1321.42,332.43Z"/><path class="cls-1" d="M1403.52,333.24c0-16.67-.13-33.33.09-50,.06-4.73-1.44-6.68-6.29-6.35-4.48.3-9,.07-13.49,0-3.65,0-5.49-1.9-5.48-5.62q0-18.24,0-36.49c0-3.83,2.1-5.45,5.57-5.59,3.83-.15,7.66-.11,11.5-.12,8.1,0,8.11,0,8.11-7.89,0-13.16,0-26.33,0-39.49,0-6.77,1-7.79,7.88-7.8q19.24-.06,38.49,0c6.53,0,7.64,1.09,7.67,7.51.05,13.83.18,27.66-.07,41.49-.09,4.88,1.71,6.34,6.41,6.25,12.49-.24,25-.09,37.49-.08,9.79,0,10.28.5,10.29,10,0,10,0,20,0,30,0,6.64-1.14,7.81-7.9,7.85-13.33.07-26.67.19-40-.06-4.84-.09-6.31,1.62-6.28,6.37.16,29.82,0,59.65.11,89.48,0,14.55,6.65,21.14,21.25,21a59.7,59.7,0,0,0,24.2-5.45c5.74-2.6,7.64-1.33,7.68,5,.07,10.84-.08,21.67.07,32.5.05,3.64-1.29,5.87-4.59,7.43-23.29,11-47.19,12.48-71.34,3.65-13.06-4.77-21.58-14.75-26.45-27.69a82.28,82.28,0,0,1-4.86-28.43c-.17-15.83,0-31.66,0-47.49Z"/><path class="cls-1" d="M1532.52,334.47q0-48,0-95.93c0-8.33,1.09-9.42,9.56-9.45,12-.05,24-.07,36,0,7.23,0,8.54,1.38,8.54,8.44q0,96.69,0,193.37c0,7.14-1,8.11-8,8.12q-19.23,0-38.47,0c-6.43,0-7.53-1.12-7.54-7.63Q1532.49,382.93,1532.52,334.47Z"/><path class="cls-1" d="M1559.26,204.21c-18.47-.08-33-15-32.85-33.71.12-18.58,14.77-32.8,33.73-32.73,18.46.06,33.54,15.14,33.37,33.39C1593.34,189.74,1578.26,204.29,1559.26,204.21Z"/><path class="cls-1" d="M1952.4,261.09c0-4.16.1-8.33,0-12.49-.11-3.34,1.17-4.94,4.66-4.81,4,.15,8,0,12,.09,6.2.22,10.15,2.82,11.62,7.68,1.57,5.22.17,9.57-4.43,12.62-1.87,1.24-2,2.41-.69,4.06a31.27,31.27,0,0,1,3.16,4.48c.81,1.56,3.68,3.27,1.39,4.93a5.18,5.18,0,0,1-6.85-.95,53.21,53.21,0,0,1-4.65-6.49c-1.63-2.56-3.79-3.78-6.75-3s-2.09,3.4-2.23,5.43c-.18,2.68.2,5.67-3.93,5.45-3.87-.19-3.19-3.15-3.24-5.53C1952.32,268.76,1952.39,264.92,1952.4,261.09Zm12-1c4.93-.13,9,.12,9-4.95-.06-5.38-4.47-4.72-8.09-5-3.82-.31-5.87.74-5.8,5.18C1959.56,260.08,1962.37,260.23,1964.41,260.09Z"/></g></g></g></svg>